<svg xmlns="http://www.w3.org/2000/svg" width="17" height="22" viewBox="0 0 17 22">
  <g fill="none" fill-rule="evenodd" stroke="#758491" stroke-width="2">
    <path d="M10,1 L3,1 C1.8954305,1 1,1.8954305 1,3 L1,19 C1,20.1045695 1.8954305,21 3,21 L14,21 C15.1045695,21 16,20.1045695 16,19 L16,7 L12,7 C10.8954305,7 10,6.1045695 10,5 L10,1 Z M14.5857864,5 L16.2928932,6.70710678 L17,5 L14.5857864,5 Z M14.4142136,5 L14,5 L14.7071068,5.29289322 L14.4142136,5 Z M12,2.58578644 L11.7071068,2.29289322 L12,3 L12,2.58578644 Z M12,2.41421356 L12,-9.47390314e-15 L10.2928932,0.707106781 L12,2.41421356 Z M12,2.41421356 L14.5857864,5 L14.4142136,5 L12,2.58578644 L12,2.41421356 Z"/>
    <polyline points="4 14 7 17 13 11"/>
  </g>
</svg>
