<svg xmlns="http://www.w3.org/2000/svg" width="24" height="21" viewBox="0 0 24 21">
  <g fill="#758491" fill-rule="evenodd">
    <path d="M2,19 L2,16 L0,16 L0,20 L0,21 L23,21 L24,21 L24,16 L22,16 L22,19 L2,19 Z"/>
    <path d="M12.0015679,18 L3.40253926,9.52789471 L3.40253926,9.52789471 C2.97339289,9.10508262 2.88698892,8.44449542 3.19295224,7.92553191 L3.19295224,7.92553191 C3.42107276,7.53860245 3.91966928,7.40986236 4.30659875,7.63798288 C4.36021357,7.66959237 4.41002276,7.70725181 4.45504825,7.75022173 L11.0038003,14 L11.0038003,0 L12.0015679,-5.68434189e-14 L12.0015679,18 Z M12.0015679,18 L12.0015679,-5.68434189e-14 L12.9993354,-5.68434189e-14 L12.9993354,14 L19.4386143,7.77875217 C19.4772303,7.74144371 19.519173,7.70774007 19.5639199,7.6780612 C19.969797,7.40885831 20.5170576,7.51965473 20.7862605,7.92553191 L20.7862605,7.92553191 C21.1262142,8.4380801 21.0545813,9.1197793 20.6155123,9.55046784 L20.6155123,9.55046784 L12.0015679,18 Z"/>
  </g>
</svg>
