<?xml version="1.0" encoding="utf-8"?>
<!-- Generator: Adobe Illustrator 19.2.1, SVG Export Plug-In . SVG Version: 6.00 Build 0)  -->
<svg version="1.1" id="Layer_1" xmlns="http://www.w3.org/2000/svg" xmlns:xlink="http://www.w3.org/1999/xlink" x="0px" y="0px"
	 viewBox="0 0 124.2 124.2" style="enable-background:new 0 0 124.2 124.2;" xml:space="preserve">
<style type="text/css">
	.st0{fill:#00ADD8;}
</style>
<g>
	<path class="st0" d="M62.1,0C27.8,0,0,27.8,0,62.1s27.8,62.1,62.1,62.1s62.1-27.8,62.1-62.1S96.4,0,62.1,0z M27.3,35.5h51.1
		l-8.5,12.6H55.4v21.4L41.1,90.6V48.1H27.3V35.5z M81.2,94.8L71,77.9l8.3-12.2l17.6,29.1H81.2z M56.8,94.8H41.1l40.1-59.3h15.7
		L56.8,94.8z"/>
	<g>
		<path class="st0" d="M105,118.7h-2.1V118h5v0.7h-2.1v5.5H105V118.7z"/>
		<path class="st0" d="M108.6,118h1.1l2,5.2l2-5.2h1.1v6.2H114V119l0,0l-1.9,5.2h-0.7l-1.9-5.2l0,0v5.2h-0.8V118H108.6z"/>
	</g>
</g>
</svg>
