<svg xmlns="http://www.w3.org/2000/svg" width="24" height="22" viewBox="0 0 24 22">
  <g fill="#F05A22" transform="rotate(180 12 11.5)">
    <path d="M6,19.1715729 L7.82842712,21 C15.3041283,21 15.9046099,21 18.4573371,21 C18.6439177,20.7133995 18.868991,20.2636628 19.1131247,19.6640038 C19.7657134,18.0610679 20.4854402,15.571272 21.2554214,12.2241898 C21.379238,11.6859632 21.0432923,11.1492711 20.5050658,11.0254545 C20.4315354,11.0085392 20.3563269,11 20.280876,11 L12.0618216,11 L13.1393471,8.26653496 C13.5803075,7.14790754 13.5803075,5.97861699 13.0934638,4.60425152 C12.8124683,3.71765351 12.281597,3.21828876 11.7429594,3.04958026 C11.489528,3.56641962 11.2150665,4.38614493 10.9402643,5.48515413 L10.8562396,5.8211919 L6.07036752,13 L6,13 L6,19.1715729 Z M15,9 L17.1136657,9 L20.280876,9 C20.5072287,9 20.7328543,9.02561752 20.9534454,9.0763635 C22.5681252,9.44781333 23.5759622,11.0578895 23.2045124,12.6725694 C21.6206598,19.5575231 20.2191557,23 19,23 L7,23 L4,20 L4,11 L5,11 L9,5 C9.62484235,2.50108424 10.291509,1.16775091 11,1 C12.1506867,0.886173665 14.2040785,1.48870616 15,4 C15.3657847,5.02996974 15.5167194,6.02996974 15.452804,7 L15,9 Z"/>
    <path d="M2,12 L2,21 L4,21 L4,12 L2,12 Z M0,10 L6,10 L6,23 L0,23 L0,10 Z"/>
  </g>
</svg>
