<svg xmlns="http://www.w3.org/2000/svg" width="24" height="22" viewBox="0 0 24 22">
  <g fill="none" fill-rule="evenodd" stroke="#758491" stroke-width="2" transform="rotate(180 12 11)">
    <path d="M5,18.5857864 L7.41421356,21 C15.736431,21 15.8453235,21 19,21 C19.0242071,21 19.4919161,20.3856213 20.0393098,19.0410731 C20.7159802,17.3789859 21.4490132,14.8431591 22.2299669,11.4483795 C22.4776001,10.3719263 21.8057088,9.29854222 20.7292556,9.050909 C20.5821949,9.01707835 20.4317778,9 20.280876,9 L13.5309108,9 L14.0696736,7.63326748 C14.6015301,6.28405476 14.6015301,4.86607615 14.0467319,3.30212576 C13.5393688,1.70129212 12.332783,0.937082965 11.2208689,0.98638631 C11.1835341,1.03435052 11.0421471,1.21485046 10.863059,1.57302678 C10.5676656,2.16381349 10.2663733,3.05782745 9.97013214,4.24257706 L9.92811979,4.41059595 L5.53518376,11 L5,11 L5,18.5857864 Z"/>
    <rect width="4" height="11" x="1" y="10"/>
  </g>
</svg>
